<svg id="Logo-Defs" version="1.2" baseProfile="tiny" xmlns="http://www.w3.org/2000/svg" xmlns:xlink="http://www.w3.org/1999/xlink"> 
	<defs>
		<style type="text/css">
	 		#Logo {
				fill: #FFF; 
				stroke: #FFF;
				stroke-miterlimit: 5;
			}
				 
			.Animate-Draw {
				fill-opacity: 0;
				animation-timing-function: ease-in-out;
				animation-fill-mode: forwards;
				animation-iteration: 1;
				  
				animation-name: DrawLine, FadeStroke, FillIn;
				animation-duration: 4s, 1s, 1s;
				animation-delay: 0s, 1.5s, 1.5s;
			} 

			#Draw-Frame { 
				animation-delay: 1s, 2s, 2s;
				animation-duration: 3.5s, 1s, 1s; 
				stroke-dashArray: 500;
				stroke-dashoffset: 500;
			}

			@keyframes DrawLine {
				to { stroke-dashOffset: 0; }
			}

			@keyframes FadeStroke {
				to { stroke-opacity: 0; }
			}

			@keyframes FillIn {
				from { fill-opacity: 0; }
				to { fill-opacity: 1; }
			}  
		</style>
		<g id="Logo-Group">
			<path id="Frame1" d="M6.8,8.4H3.9c-0.7,0-1.3-0.6-1.3-1.3v0c0-0.7,0.6-1.3,1.3-1.3h2.9c0.7,0,1.3,0.6,1.3,1.3v0
				C8.1,7.9,7.5,8.4,6.8,8.4z"/>
			<path id="Frame2" d="M6.8,14.9H3.9c-0.7,0-1.3-0.6-1.3-1.3v0c0-0.7,0.6-1.3,1.3-1.3h2.9c0.7,0,1.3,0.6,1.3,1.3v0
				C8.1,14.3,7.5,14.9,6.8,14.9z"/>
			<path id="Frame3" d="M22.4,0.7h-15C5.8,0.7,4.5,2,4.5,3.6V5h2.4c1.2,0,2.2,1,2.2,2.2s-1,2.2-2.2,2.2H4.5v2.1h2.4
				c1.2,0,2.2,1,2.2,2.2c0,1.2-1,2.2-2.2,2.2H4.5v2.1h2.4c1.2,0,2.2,1,2.2,2.2c0,1.2-1,2.2-2.2,2.2H4.5v1.4c0,1.6,1.3,2.9,2.9,2.9h15
				c1.6,0,2.9-1.3,2.9-2.9v-20C25.2,2,24,0.7,22.4,0.7z M14.9,7.8c1.4,0,2.5,1.1,2.5,2.5s-1.1,2.5-2.5,2.5c-1.4,0-2.5-1.1-2.5-2.5
				S13.5,7.8,14.9,7.8z M17.7,19.8H12v-3.4c0-1.6,1.3-2.8,2.8-2.8c1.6,0,2.8,1.3,2.8,2.8V19.8z"/>
			<path id="Frame4" d="M6.8,21.3H3.9c-0.7,0-1.3-0.6-1.3-1.3v0c0-0.7,0.6-1.3,1.3-1.3h2.9c0.7,0,1.3,0.6,1.3,1.3v0
				C8.1,20.7,7.5,21.3,6.8,21.3z"/>
		</g>
	</defs>
	<svg id="Logo" class="Animate-Draw" xml:space="preserve" width="32px" height="32px" viewBox="0 0 32 32" preserveAspectRatio="xMinYMin">
	  <use id="Draw-Frame" class="Animate-Draw" xlink:href="#Frame1" />
	  <use id="Draw-Frame" class="Animate-Draw" xlink:href="#Frame2" />
	  <use id="Draw-Frame" class="Animate-Draw" xlink:href="#Frame3" />
	  <use id="Draw-Frame" class="Animate-Draw" xlink:href="#Frame4" />
	</svg>  
</svg>
