<svg id="Logo-Defs" version="1.2" baseProfile="tiny" xmlns="http://www.w3.org/2000/svg" xmlns:xlink="http://www.w3.org/1999/xlink"> 
	<defs>
		<style type="text/css">
	 		#Logo {
				fill: #FFF; 
				stroke: #FFF;
				stroke-miterlimit: 5;
			}
				 
			.Animate-Draw {
				fill-opacity: 0;
				animation-timing-function: ease-in-out;
				animation-fill-mode: forwards;
				animation-iteration: 1;
				  
				animation-name: DrawLine, FadeStroke, FillIn;
				animation-duration: 4s, 1s, 1s;
				animation-delay: 0s, 1.5s, 1.5s;
			} 

			#Draw-Frame { 
				animation-delay: 1s, 2s, 2s,;
				animation-duration: 3.5s, 1s 1s; 
				stroke-dashArray: 500;
				stroke-dashoffset: 500;
			}

			@keyframes DrawLine {
				to { stroke-dashOffset: 0; }
			}

			@keyframes FadeStroke {
				to { stroke-opacity: 0; }
			}

			@keyframes FillIn {
				from { fill-opacity: 0; }
				to { fill-opacity: 1; }
			}  
		</style>
		<g id="Logo-Group">
			<path id="Frame1" d="M2.203,5.331l10.034,7.948c0.455,0.36,1.082,0.52,1.691,0.49c0.608,0.03,1.235-0.129,1.69-0.49    l10.034-7.948c0.804-0.633,0.622-1.152-0.398-1.152H13.929H2.604C1.583,4.179,1.401,4.698,2.203,5.331z" />
			<path id="Frame2" d="M26.377,7.428l-10.965,8.325c-0.41,0.308-0.947,0.458-1.482,0.451    c-0.536,0.007-1.073-0.144-1.483-0.451L1.48,7.428C0.666,6.811,0,7.142,0,8.163v13.659c0,1.021,0.836,1.857,1.857,1.857h12.071H26    c1.021,0,1.857-0.836,1.857-1.857V8.163C27.857,7.142,27.191,6.811,26.377,7.428z" />
		</g>
	</defs>
	<svg id="Logo" class="Animate-Draw" xml:space="preserve" width="15px" height="15px" viewBox="0 0 28 25" preserveAspectRatio="xMinYMin">
	  <use id="Draw-Frame" class="Animate-Draw" xlink:href="#Frame1" />
	  <use id="Draw-Frame" class="Animate-Draw" xlink:href="#Frame2" />
	</svg>  
</svg>
