<svg id="Logo-Defs" version="1.2" baseProfile="tiny" xmlns="http://www.w3.org/2000/svg" xmlns:xlink="http://www.w3.org/1999/xlink"> 
	<defs>
		<style type="text/css">
	 		#Logo {
				fill: #FFF; 
				stroke: #FFF;
				stroke-miterlimit: 5;
			}
				 
			.Animate-Draw {
				fill-opacity: 0;
				animation-timing-function: ease-in-out;
				animation-fill-mode: forwards;
				animation-iteration: 1;
				  
				animation-name: DrawLine, FadeStroke, FillIn;
				animation-duration: 4s, 1s, 1s;
				animation-delay: 0s, 1.5s, 1.5s;
			} 

			#Draw-Frame { 
				animation-delay: 1s, 2s, 2s;
				animation-duration: 3.5s, 1s, 1s; 
				stroke-dashArray: 500;
				stroke-dashoffset: 500;
			}

			@keyframes DrawLine {
				to { stroke-dashOffset: 0; }
			}

			@keyframes FadeStroke {
				to { stroke-opacity: 0; }
			}

			@keyframes FillIn {
				from { fill-opacity: 0; }
				to { fill-opacity: 1; }
			}  
		</style>
		<g id="Logo-Group">
	      <path id="Frame" d="M3.5,14.2L13.9,6l10.3,8.2v11c0,0.5-0.4,1-1,1h-5.9c-0.5,0-1-0.4-1-1l0-5.9c0-0.5-0.4-1-1-1l-3.2,0c-0.6,0-1,0.4-1,1v5.9 c0,0.5-0.4,1-1,1H4.5c-0.5,0-1-0.4-1-1V14.2z"/> 
	      <path id="Frame2" d="M26.4,11.5L14.4,2.2c-0.4-0.3-0.9-0.3-1.2,0L6.7,7.3V4.4c0-0.5-0.4-1-1-1H4.5c-0.5,0-1,0.4-1,1v5.4l-2.2,1.7 C1.1,11.7,1,11.9,1,12.2l0,1.5c0,0.3,0.4,0.5,0.7,0.3l12.1-9.6l12.3,9.7c0.2,0.2,0.6,0,0.6-0.3l0-1.6C26.7,12,26.6,11.7,26.4,11.5z"/> 
	    </g>
	</defs>
	<svg id="Logo" class="Animate-Draw" xml:space="preserve" width="32px" height="32px" viewBox="0 0 32 32" preserveAspectRatio="xMinYMin">
	  <use id="Draw-Frame" class="Animate-Draw" xlink:href="#Frame" />
	  <use id="Draw-Frame" class="Animate-Draw" xlink:href="#Frame2" />
	</svg>  
</svg>
