<svg id="Logo-Defs" version="1.2" baseProfile="tiny" xmlns="http://www.w3.org/2000/svg" xmlns:xlink="http://www.w3.org/1999/xlink"> 
	<defs>
		<style type="text/css">
	 		#Logo {
				fill: #FFF; 
				stroke: #FFF;
				stroke-miterlimit: 5;
			}
				 
			.Animate-Draw {
				fill-opacity: 0;
				animation-timing-function: ease-in-out;
				animation-fill-mode: forwards;
				animation-iteration: 1;
				  
				animation-name: DrawLine, FadeStroke, FillIn;
				animation-duration: 4s, 1s, 1s;
				animation-delay: 0s, 1.5s, 1.5s;
			} 

			#Draw-Frame { 
				animation-delay: 1s, 2s, 2s;
				animation-duration: 3.5s, 1s, 1s; 
				stroke-dashArray: 500;
				stroke-dashoffset: 500;
			}

			@keyframes DrawLine {
				to { stroke-dashOffset: 0; }
			}

			@keyframes FadeStroke {
				to { stroke-opacity: 0; }
			}

			@keyframes FillIn {
				from { fill-opacity: 0; }
				to { fill-opacity: 1; }
			}  
		</style>
		<g id="Logo-Group">
			<path id="Frame1" d="M18.9,18.1c1.4-2.4,3.5-5,3.5-8.8c0-2.6-1.4-4.1-3.1-5.2c0.1-0.6,0.3-1.4,0.2-2.1c-0.6,0.4-1.2,1.3-1.8,1.7
				c-0.2-0.9-0.4-1.7-0.6-2.5c-0.5,1-1,2-1.5,3C16.9,8.7,17.8,13.5,18.9,18.1z"/>
			<path id="Frame2" d="M13.6,3.2c-0.6,0.5-1,1-1.1,1.9c0.6-0.3,1.2-0.9,1.7-1.2c-0.3,0.5-0.5,1.7,0,2.2c0.6-1.3,1.2-2.4,1.8-3.7
				c-1.4-0.8-3.3-0.1-4.1,0.6c-0.2,0.1-0.4,0.2-0.4,0.4C12.1,3.4,12.9,3.3,13.6,3.2z"/>
			<path id="Frame3" d="M25.4,25.1c-0.3-0.2-0.6-0.4-1-0.6c-0.4-0.2-0.9-0.4-1.4-0.7c-0.3-0.1-0.5-0.2-0.8-0.3
				c-0.3-0.1-0.6-0.2-0.9-0.3c-0.6-0.2-1.3-0.4-2-0.5c-0.7-0.1-1.4-0.3-2.1-0.3c-0.4,0-0.7-0.1-1.1-0.1c0,0,0,0,0,0
				c0.6-1.2,1-2.5,1.3-3.9c0.4-2.4,0-4.7-0.8-6.7c-1.4-3.3-4.2-6.8-9-6.5C6.2,5.2,4.8,5.7,4,6.2C3.9,6.3,3.7,6.4,3.7,6.5
				c1.1-0.4,3.2-0.7,4.4-0.1C3.9,7,1.3,9.2,1.3,13.9c0.2-0.2,0.5-0.7,0.8-1c1.3-1.1,2.7-2,4.8-2.1c3.5-0.2,5.8,1.8,7.1,4.1
				c1.1,1.9,1.3,5,0.7,7.4c-0.2,0-0.5,0-0.7,0c-0.4,0-0.7,0.1-1.1,0.1c-0.2,0-0.4,0-0.5,0.1c-0.2,0-0.4,0.1-0.5,0.1
				c-0.4,0.1-0.7,0.1-1,0.2c-0.7,0.2-1.3,0.3-1.9,0.5c-0.3,0.1-0.6,0.2-0.9,0.3c-0.3,0.1-0.5,0.2-0.8,0.3c-0.5,0.2-1,0.4-1.4,0.6
				c-0.4,0.2-0.7,0.4-1,0.6c-0.3,0.2-0.5,0.3-0.6,0.4c-0.1,0.1-0.2,0.2-0.2,0.2s0.4-0.1,1-0.2c0.3-0.1,0.7-0.1,1.1-0.2
				C6.4,25.1,6.9,25,7.4,25c0.5-0.1,1.1-0.2,1.7-0.3c0.6-0.1,1.2-0.1,1.9-0.2c0.7,0,1.3-0.1,2-0.2c0.7,0,1.4-0.1,2.1-0.1
				c0.3,0,0.7,0,1,0c0.3,0,0.7,0,1,0c0.2,0,0.3,0,0.5,0c0.2,0,0.3,0,0.5,0c0.3,0,0.7,0.1,1,0.1c0.7,0,1.3,0.1,1.9,0.2
				c0.3,0,0.6,0.1,0.9,0.1c0.3,0.1,0.5,0.1,0.8,0.2c0.3,0,0.5,0.1,0.8,0.1c0.2,0,0.5,0.1,0.7,0.1c0.4,0.1,0.8,0.2,1.1,0.3
				c0.6,0.1,1,0.2,1,0.2S26,25.4,25.4,25.1z"/>
		</g>
	</defs>
	<svg id="Logo" class="Animate-Draw" xml:space="preserve" width="32px" height="32px" viewBox="0 0 32 32" preserveAspectRatio="xMinYMin">
	  <use id="Draw-Frame" class="Animate-Draw" xlink:href="#Frame1" />
	  <use id="Draw-Frame" class="Animate-Draw" xlink:href="#Frame2" />
	  <use id="Draw-Frame" class="Animate-Draw" xlink:href="#Frame3" />
	</svg>  
</svg>
