<svg id="Logo-Defs" version="1.2" baseProfile="tiny" xmlns="http://www.w3.org/2000/svg" xmlns:xlink="http://www.w3.org/1999/xlink"> 
	<defs>
		<style type="text/css">
	 		#Logo {
				fill: #FFF; 
				stroke: #FFF;
				stroke-miterlimit: 5;
			}
				 
			.Animate-Draw {
				fill-opacity: 0;
				animation-timing-function: ease-in-out;
				animation-fill-mode: forwards;
				animation-iteration: 1;
				  
				animation-name: DrawLine, FadeStroke, FillIn;
				animation-duration: 4s, 1s, 1s;
				animation-delay: 0s, 1.5s, 1.5s;
			} 

			#Draw-Frame { 
				animation-delay: 1s, 2s, 2s;
				animation-duration: 3.5s, 1s, 1s; 
				stroke-dashArray: 500;
				stroke-dashoffset: 500;
			}

			@keyframes DrawLine {
				to { stroke-dashOffset: 0; }
			}

			@keyframes FadeStroke {
				to { stroke-opacity: 0; }
			}

			@keyframes FillIn {
				from { fill-opacity: 0; }
				to { fill-opacity: 1; }
			}  
		</style>
		<g id="Logo-Group">
			<path id="Frame1" d="M13.8,0.8c-7,0-12.7,5.7-12.7,12.7c0,7,5.7,12.7,12.7,12.7c7,0,12.7-5.7,12.7-12.7
				C26.6,6.5,20.8,0.8,13.8,0.8z M14.7,21.1l-0.2,2c0,0.3-0.2,0.5-0.7,0.5c-0.7,0.1-1.2,0.1-1.9,0.1l0.3-2.5c-1.3-0.1-2.6-0.7-3.6-1.4
				c-0.2-0.4-0.2-1.5,0.2-2c0.2-0.3,0.4-0.4,0.8-0.2c0.8,0.6,2.5,1.3,3.8,1.3c1.6,0,2.2-0.8,2.2-1.6c0-1.1-0.9-1.6-3.2-2.8
				c-2.5-1.3-3.5-2.5-3.5-4.5c0-2.9,2.6-4.2,4.2-4.3l0.2-1.5c0.1-0.4,0.2-0.6,0.6-0.6c0.6-0.1,1.2-0.2,2-0.2l-0.3,2.2
				c0.9,0.1,2.4,0.5,3.1,1.2c0,0.6-0.5,1.8-1.4,1.8c-1-0.5-2.1-0.8-2.9-0.8c-1.7,0-2,0.9-2,1.4c0,0.9,0.8,1.5,3,2.7
				c2.3,1.2,3.9,2.1,3.9,4.5C19.2,19.6,16.7,20.8,14.7,21.1z"/>
		</g>
	</defs>
	<svg id="Logo" class="Animate-Draw" xml:space="preserve" width="32px" height="32px" viewBox="0 0 32 32" preserveAspectRatio="xMinYMin">
	  <use id="Draw-Frame" class="Animate-Draw" xlink:href="#Frame1" />
	</svg>  
</svg>
