<svg id="Logo-Defs" version="1.2" baseProfile="tiny" xmlns="http://www.w3.org/2000/svg" xmlns:xlink="http://www.w3.org/1999/xlink"> 
	<defs>
		<style type="text/css">
	 		#Logo {
				fill: #FFF; 
				stroke: #FFF;
				stroke-miterlimit: 5;
			}
				 
			.Animate-Draw {
				fill-opacity: 0;
				animation-timing-function: ease-in-out;
				animation-fill-mode: forwards;
				animation-iteration: 1;
				  
				animation-name: DrawLine, FadeStroke, FillIn;
				animation-duration: 4s, 1s, 1s;
				animation-delay: 0s, 1.5s, 1.5s;
			} 

			#Draw-Frame { 
				animation-delay: 1s, 2s, 2s;
				animation-duration: 3.5s, 1s, 1s; 
				stroke-dashArray: 500;
				stroke-dashoffset: 500;
			}

			@keyframes DrawLine {
				to { stroke-dashOffset: 0; }
			}

			@keyframes FadeStroke {
				to { stroke-opacity: 0; }
			}

			@keyframes FillIn {
				from { fill-opacity: 0; }
				to { fill-opacity: 1; }
			}  
		</style>
		<g id="Logo-Group">
			<path id="Frame1" d="M7.1,14.1l3.4-3.9l3.4,3.3l3.8-3.2l1.1,2.9l1.3-1.4l1,0.6l1.8-1.2c-1.1-4.6-4.1-10.4-9.1-10.3
				C9,0.9,5.6,7,4.7,11.7L7.1,14.1z"/>
			<path id="Frame2" d="M23,12.8l-2,1.3l-0.8-0.5l-1.9,2l-1.1-3l-3.4,2.9l-3.3-3.2l-3.4,3.9l-2.7-2.7c0,0.2-0.1,0.5-0.1,0.7
				c-0.6,9.4,5.1,12.2,9.5,12.2c4.2,0,10.1-3.2,9.3-12.3C23.2,13.7,23.1,13.2,23,12.8"/>
		</g>
	</defs>
	<svg id="Logo" class="Animate-Draw" xml:space="preserve" width="32px" height="32px" viewBox="0 0 32 32" preserveAspectRatio="xMinYMin">
	  <use id="Draw-Frame" class="Animate-Draw" xlink:href="#Frame1" />
	  <use id="Draw-Frame" class="Animate-Draw" xlink:href="#Frame2" />
	</svg>  
</svg>
