<svg id="Logo-Defs" version="1.2" baseProfile="tiny" xmlns="http://www.w3.org/2000/svg" xmlns:xlink="http://www.w3.org/1999/xlink"> 
	<defs>
		<style type="text/css">
	 		#Logo {
				fill: #FFF; 
				stroke: #FFF;
				stroke-miterlimit: 5;
			}
				 
			.Animate-Draw {
				fill-opacity: 0;
				animation-timing-function: ease-in-out;
				animation-fill-mode: forwards;
				animation-iteration: 1;
				  
				animation-name: DrawLine, FadeStroke, FillIn;
				animation-duration: 4s, 1s, 1s;
				animation-delay: 0s, 1.5s, 1.5s;
			} 

			#Draw-Frame { 
				animation-delay: 1s, 2s, 2s;
				animation-duration: 3.5s, 1s, 1s; 
				stroke-dashArray: 500;
				stroke-dashoffset: 500;
			}

			@keyframes DrawLine {
				to { stroke-dashOffset: 0; }
			}

			@keyframes FadeStroke {
				to { stroke-opacity: 0; }
			}

			@keyframes FillIn {
				from { fill-opacity: 0; }
				to { fill-opacity: 1; }
			}  
		</style>
		<g id="Logo-Group">
			<path id="Frame1" d="M25.9,11.1c0-2.7-2.2-4.9-4.9-4.9c-1-3.1-3.9-5.4-7.3-5.3c-3.4,0-6.3,2.3-7.3,5.4c-2.6,0.2-4.6,2.4-4.6,5
				c0,2.6,2.1,4.8,4.7,4.9L6.2,26.4h14.9l-0.2-10.3C23.7,16.1,25.9,13.8,25.9,11.1z M13.8,15.9c0.3,0,0.6,0.3,0.6,0.6v6.9h-1.2v-6.9
				C13.2,16.2,13.5,15.9,13.8,15.9z M10.2,15.9c0.3,0,0.6,0.3,0.6,0.6v6.9H9.6v-6.9C9.6,16.2,9.9,15.9,10.2,15.9z M16.8,23.4v-6.9
				c0-0.3,0.3-0.6,0.6-0.6c0.3,0,0.6,0.3,0.6,0.6v6.9H16.8z"/>
		</g>
	</defs>
	<svg id="Logo" class="Animate-Draw" xml:space="preserve" width="32px" height="32px" viewBox="0 0 32 32" preserveAspectRatio="xMinYMin">
	  <use id="Draw-Frame" class="Animate-Draw" xlink:href="#Frame1" />
	</svg>  
</svg>
